<svg width="273" height="126" xmlns="http://www.w3.org/2000/svg" xmlns:xlink="http://www.w3.org/1999/xlink" xml:space="preserve" overflow="hidden"><g transform="translate(-102 -1258)"><path d="M140.356 1266.25 141.698 1266.25C141.601 1267.82 141.552 1269.98 141.552 1272.75L141.552 1293.6C141.552 1294.54 141.605 1295.25 141.711 1295.73 141.816 1296.21 142.004 1296.61 142.272 1296.91 142.541 1297.21 142.927 1297.44 143.432 1297.61 143.936 1297.79 144.571 1297.92 145.336 1298.01 146.101 1298.09 147.11 1298.16 148.363 1298.19L148.363 1299.97 130.322 1299.97 130.322 1298.19C132.128 1298.11 133.418 1298 134.191 1297.86 134.964 1297.72 135.554 1297.51 135.961 1297.24 136.368 1296.96 136.665 1296.57 136.852 1296.06 137.039 1295.56 137.133 1294.74 137.133 1293.6L137.133 1273.8C137.133 1273.15 137.019 1272.67 136.791 1272.37 136.563 1272.07 136.23 1271.92 135.79 1271.92 135.269 1271.92 134.529 1272.19 133.569 1272.72 132.608 1273.26 131.42 1274 130.004 1274.95L128.93 1273.07Z" fill-rule="evenodd"/><text fill="#000000" fill-opacity="0" font-family="Arial,Arial_MSFontService,sans-serif" font-size="33.7158" x="128.93" y="1295.76">1</text><path d="M141.011 1335.12 169.011 1335.12 169.011 1338.12 143.805 1338.12 143.805 1338.69 139.386 1338.69 126.251 1383.56 123.883 1383.56 113.776 1361.83 109.65 1363.66 108.893 1361.83 116.901 1358.17 125.519 1377.12 137.579 1335.44 141.011 1335.44Z" fill-rule="evenodd"/><path d="M155.191 1345.87C158.218 1345.87 160.505 1346.53 162.051 1347.86 163.598 1349.18 164.371 1351.11 164.371 1353.63 164.371 1354.49 164.285 1355.29 164.114 1356.01 163.943 1356.74 163.675 1357.45 163.309 1358.16 162.942 1358.87 162.45 1359.63 161.832 1360.44 161.213 1361.26 160.53 1362.08 159.781 1362.92 159.032 1363.76 157.738 1365.15 155.899 1367.11 152.807 1370.38 150.536 1373.24 149.088 1375.68L158.292 1375.68C159.089 1375.68 159.732 1375.63 160.22 1375.53 160.709 1375.43 161.099 1375.27 161.392 1375.04 161.685 1374.81 161.917 1374.52 162.088 1374.15 162.259 1373.78 162.475 1373.22 162.735 1372.45L164.81 1372.45 164.395 1379.58 144.302 1379.58 144.302 1378.41C145.002 1376.7 145.946 1374.95 147.134 1373.16 148.323 1371.37 150.007 1369.26 152.188 1366.84 154.076 1364.76 155.435 1363.18 156.265 1362.1 157.177 1360.93 157.856 1359.92 158.304 1359.06 158.751 1358.21 159.073 1357.4 159.268 1356.65 159.463 1355.89 159.561 1355.13 159.561 1354.36 159.561 1353.14 159.366 1352.06 158.975 1351.13 158.585 1350.19 157.986 1349.46 157.181 1348.92 156.375 1348.38 155.362 1348.11 154.141 1348.11 151.098 1348.11 149.047 1349.81 147.989 1353.19L145.035 1353.19 145.035 1348.5C147.004 1347.58 148.847 1346.91 150.565 1346.49 152.282 1346.07 153.824 1345.87 155.191 1345.87Z" fill-rule="evenodd"/><text fill="#000000" fill-opacity="0" font-family="Arial,Arial_MSFontService,sans-serif" font-size="33.7158" x="144.302" y="1375.37">2</text><path d="M108.011 1322.12 169.011 1322.12 169.011 1325.12 108.011 1325.12Z" fill-rule="evenodd"/><path d="M352.008 1282.85 363.629 1282.85 363.629 1364.88 352.008 1364.88 352.008 1362.76 359.112 1362.76 359.112 1284.97 352.008 1284.97ZM194.11 1282.85 205.731 1282.85 205.731 1284.97 198.626 1284.97 198.626 1362.76 205.731 1362.76 205.731 1364.88 194.11 1364.88Z" fill-rule="evenodd"/><path d="M222.764 1277.46 224.107 1277.46C224.009 1279.02 223.96 1281.19 223.96 1283.96L223.96 1304.8C223.96 1305.75 224.013 1306.46 224.119 1306.94 224.225 1307.42 224.412 1307.81 224.681 1308.11 224.949 1308.41 225.336 1308.65 225.84 1308.82 226.345 1308.99 226.98 1309.12 227.744 1309.21 228.509 1309.3 229.519 1309.36 230.772 1309.39L230.772 1311.18 212.73 1311.18 212.73 1309.39C214.536 1309.31 215.826 1309.2 216.599 1309.07 217.373 1308.93 217.963 1308.72 218.369 1308.44 218.776 1308.17 219.073 1307.78 219.261 1307.27 219.448 1306.77 219.541 1305.94 219.541 1304.8L219.541 1285.01C219.541 1284.35 219.427 1283.88 219.2 1283.58 218.972 1283.28 218.638 1283.13 218.199 1283.13 217.678 1283.13 216.937 1283.39 215.977 1283.93 215.017 1284.47 213.828 1285.21 212.412 1286.15L211.338 1284.27Z" fill-rule="evenodd"/><text fill="#000000" fill-opacity="0" font-family="Arial,Arial_MSFontService,sans-serif" font-size="33.7158" x="211.338" y="1306.96">1</text><path d="M319.931 1277.46 321.273 1277.46C321.176 1279.02 321.127 1281.19 321.127 1283.96L321.127 1304.8C321.127 1305.75 321.18 1306.46 321.286 1306.94 321.391 1307.42 321.579 1307.81 321.847 1308.11 322.116 1308.41 322.502 1308.65 323.007 1308.82 323.511 1308.99 324.146 1309.12 324.911 1309.21 325.676 1309.3 326.685 1309.36 327.938 1309.39L327.938 1311.18 309.896 1311.18 309.896 1309.39C311.703 1309.31 312.993 1309.2 313.766 1309.07 314.539 1308.93 315.129 1308.72 315.536 1308.44 315.943 1308.17 316.24 1307.78 316.427 1307.27 316.614 1306.77 316.708 1305.94 316.708 1304.8L316.708 1285.01C316.708 1284.35 316.594 1283.88 316.366 1283.58 316.138 1283.28 315.805 1283.13 315.365 1283.13 314.844 1283.13 314.104 1283.39 313.144 1283.93 312.183 1284.47 310.995 1285.21 309.579 1286.15L308.505 1284.27Z" fill-rule="evenodd"/><text fill="#000000" fill-opacity="0" font-family="Arial,Arial_MSFontService,sans-serif" font-size="33.7158" x="308.505" y="1306.96">1</text><path d="M222.764 1336.56 224.107 1336.56C224.009 1338.13 223.96 1340.29 223.96 1343.06L223.96 1363.91C223.96 1364.85 224.013 1365.56 224.119 1366.04 224.225 1366.52 224.412 1366.91 224.681 1367.22 224.949 1367.52 225.336 1367.75 225.84 1367.92 226.345 1368.09 226.98 1368.22 227.744 1368.31 228.509 1368.4 229.519 1368.46 230.772 1368.5L230.772 1370.28 212.73 1370.28 212.73 1368.5C214.536 1368.42 215.826 1368.31 216.599 1368.17 217.373 1368.03 217.963 1367.82 218.369 1367.54 218.776 1367.27 219.073 1366.88 219.261 1366.37 219.448 1365.87 219.541 1365.05 219.541 1363.91L219.541 1344.11C219.541 1343.46 219.427 1342.98 219.2 1342.68 218.972 1342.38 218.638 1342.23 218.199 1342.23 217.678 1342.23 216.937 1342.5 215.977 1343.03 215.017 1343.57 213.828 1344.31 212.412 1345.25L211.338 1343.37Z" fill-rule="evenodd"/><text fill="#000000" fill-opacity="0" font-family="Arial,Arial_MSFontService,sans-serif" font-size="33.7158" x="211.338" y="1366.06">1</text><path d="M288.959 1354.36 319.038 1354.36 319.038 1357.61 288.959 1357.61Z" fill-rule="evenodd"/><text fill="#000000" fill-opacity="0" font-family="Arial,Arial_MSFontService,sans-serif" font-size="3.24707" x="288.959" y="1357.2">−</text><path d="M338.768 1336.56 340.111 1336.56C340.013 1338.13 339.964 1340.29 339.964 1343.06L339.964 1363.91C339.964 1364.85 340.017 1365.56 340.123 1366.04 340.229 1366.52 340.416 1366.91 340.685 1367.22 340.953 1367.52 341.34 1367.75 341.844 1367.92 342.349 1368.09 342.984 1368.22 343.749 1368.31 344.514 1368.4 345.523 1368.46 346.776 1368.5L346.776 1370.28 328.734 1370.28 328.734 1368.5C330.541 1368.42 331.831 1368.31 332.604 1368.17 333.377 1368.03 333.967 1367.82 334.374 1367.54 334.781 1367.27 335.078 1366.88 335.265 1366.37 335.452 1365.87 335.546 1365.05 335.546 1363.91L335.546 1344.11C335.546 1343.46 335.432 1342.98 335.204 1342.68 334.976 1342.38 334.642 1342.23 334.203 1342.23 333.682 1342.23 332.941 1342.5 331.981 1343.03 331.021 1343.57 329.833 1344.31 328.417 1345.25L327.342 1343.37Z" fill-rule="evenodd"/><text fill="#000000" fill-opacity="0" font-family="Arial,Arial_MSFontService,sans-serif" font-size="33.7158" x="327.342" y="1366.06">1</text></g></svg>