<svg width="154" height="102" xmlns="http://www.w3.org/2000/svg" xmlns:xlink="http://www.w3.org/1999/xlink" xml:space="preserve" overflow="hidden"><g transform="translate(-1746 -1200)"><path d="M1876.91 1214.1 1888.53 1214.1 1888.53 1296.13 1876.91 1296.13 1876.91 1294.01 1884.01 1294.01 1884.01 1216.22 1876.91 1216.22ZM1756.69 1214.1 1768.31 1214.1 1768.31 1216.22 1761.2 1216.22 1761.2 1294.01 1768.31 1294.01 1768.31 1296.13 1756.69 1296.13Z" fill-rule="evenodd"/><path d="M1785.34 1208.51 1786.68 1208.51C1786.59 1210.07 1786.54 1212.23 1786.54 1215L1786.54 1235.85C1786.54 1236.79 1786.59 1237.5 1786.7 1237.98 1786.8 1238.47 1786.99 1238.86 1787.26 1239.16 1787.53 1239.46 1787.91 1239.69 1788.42 1239.86 1788.92 1240.04 1789.56 1240.17 1790.32 1240.26 1791.09 1240.34 1792.1 1240.41 1793.35 1240.44L1793.35 1242.22 1775.31 1242.22 1775.31 1240.44C1777.11 1240.36 1778.4 1240.25 1779.18 1240.11 1779.95 1239.97 1780.54 1239.76 1780.95 1239.49 1781.35 1239.21 1781.65 1238.82 1781.84 1238.31 1782.02 1237.81 1782.12 1236.99 1782.12 1235.85L1782.12 1216.05C1782.12 1215.4 1782 1214.92 1781.78 1214.62 1781.55 1214.32 1781.21 1214.17 1780.78 1214.17 1780.25 1214.17 1779.51 1214.44 1778.55 1214.97 1777.59 1215.51 1776.41 1216.25 1774.99 1217.2L1773.92 1215.32Z" fill-rule="evenodd"/><text fill="#000000" fill-opacity="0" font-family="Arial,Arial_MSFontService,sans-serif" font-size="33.7158" x="1773.92" y="1238.01">1</text><path d="M1861.74 1210.58C1860.62 1210.58 1859.68 1210.91 1858.92 1211.58 1858.16 1212.25 1857.55 1213.21 1857.09 1214.46 1856.63 1215.72 1856.3 1217.24 1856.1 1219.04 1855.91 1220.84 1855.81 1222.87 1855.81 1225.13 1855.81 1230.44 1856.3 1234.33 1857.29 1236.81 1858.27 1239.3 1859.8 1240.54 1861.86 1240.54 1863.83 1240.54 1865.29 1239.37 1866.25 1237.03 1867.2 1234.7 1867.67 1231.08 1867.67 1226.18 1867.67 1222.44 1867.43 1219.41 1866.94 1217.09 1866.45 1214.77 1865.77 1213.1 1864.9 1212.09 1864.03 1211.08 1862.98 1210.58 1861.74 1210.58ZM1861.86 1208.51C1865.43 1208.51 1868.08 1209.88 1869.82 1212.63 1871.56 1215.38 1872.43 1219.54 1872.43 1225.11 1872.43 1230.87 1871.5 1235.23 1869.64 1238.18 1867.78 1241.13 1865.05 1242.61 1861.47 1242.61 1857.96 1242.61 1855.34 1241.23 1853.62 1238.46 1851.91 1235.69 1851.05 1231.49 1851.05 1225.86 1851.05 1222.87 1851.31 1220.28 1851.84 1218.1 1852.37 1215.92 1853.11 1214.12 1854.06 1212.69 1855.02 1211.27 1856.16 1210.21 1857.49 1209.53 1858.83 1208.85 1860.28 1208.51 1861.86 1208.51Z" fill-rule="evenodd"/><text fill="#000000" fill-opacity="0" font-family="Arial,Arial_MSFontService,sans-serif" font-size="34.1064" x="1851.05" y="1238.35">0</text><path d="M1783.41 1269.68C1782.29 1269.68 1781.35 1270.02 1780.59 1270.68 1779.84 1271.35 1779.23 1272.31 1778.76 1273.56 1778.3 1274.82 1777.97 1276.34 1777.77 1278.14 1777.58 1279.94 1777.48 1281.97 1777.48 1284.23 1777.48 1289.54 1777.97 1293.43 1778.96 1295.92 1779.94 1298.4 1781.47 1299.64 1783.53 1299.64 1785.5 1299.64 1786.96 1298.47 1787.92 1296.13 1788.87 1293.8 1789.34 1290.18 1789.34 1285.28 1789.34 1281.54 1789.1 1278.51 1788.61 1276.19 1788.12 1273.87 1787.44 1272.21 1786.57 1271.2 1785.7 1270.19 1784.65 1269.68 1783.41 1269.68ZM1783.53 1267.61C1787.1 1267.61 1789.75 1268.98 1791.49 1271.73 1793.23 1274.48 1794.11 1278.64 1794.11 1284.21 1794.11 1289.97 1793.17 1294.33 1791.31 1297.28 1789.45 1300.24 1786.72 1301.71 1783.14 1301.71 1779.63 1301.71 1777.01 1300.33 1775.29 1297.56 1773.58 1294.8 1772.72 1290.6 1772.72 1284.97 1772.72 1281.97 1772.98 1279.38 1773.51 1277.2 1774.04 1275.02 1774.78 1273.22 1775.73 1271.79 1776.69 1270.37 1777.83 1269.32 1779.16 1268.63 1780.5 1267.95 1781.96 1267.61 1783.53 1267.61Z" fill-rule="evenodd"/><text fill="#000000" fill-opacity="0" font-family="Arial,Arial_MSFontService,sans-serif" font-size="34.1064" x="1772.72" y="1297.45">0</text><path d="M1863.19 1277.76 1864.63 1277.76 1861.11 1293.44C1860.75 1295.03 1860.57 1296.24 1860.57 1297.05 1860.57 1297.7 1860.68 1298.17 1860.89 1298.47 1861.1 1298.76 1861.44 1298.91 1861.89 1298.91 1862.38 1298.91 1862.9 1298.71 1863.46 1298.31 1864.01 1297.91 1864.79 1297.15 1865.8 1296.03L1867.19 1297.39C1865.6 1299.07 1864.3 1300.21 1863.31 1300.81 1862.32 1301.41 1861.2 1301.71 1859.96 1301.71 1858.91 1301.71 1858.06 1301.33 1857.42 1300.55 1856.79 1299.78 1856.47 1298.79 1856.47 1297.59 1856.47 1296.35 1856.7 1294.77 1857.16 1292.85L1858.99 1284.87C1859.36 1283.24 1859.55 1282.02 1859.55 1281.21 1859.55 1280.47 1859.37 1279.98 1859.02 1279.72 1858.67 1279.46 1857.99 1279.31 1856.96 1279.28L1857.23 1277.98ZM1862.53 1268.41 1866.85 1268.41 1865.73 1273.15 1861.4 1273.15Z" fill-rule="evenodd"/><text fill="#000000" fill-opacity="0" font-family="Arial,Arial_MSFontService,sans-serif" font-size="33.3008" x="1856.47" y="1297.55">ⅈ</text></g></svg>