<svg width="318" height="225" xmlns="http://www.w3.org/2000/svg" xmlns:xlink="http://www.w3.org/1999/xlink" xml:space="preserve" overflow="hidden"><g transform="translate(-2978 -458)"><path d="M3269.73 466.739 3284.13 466.739 3284.13 680.459 3269.73 680.459 3269.73 677.676 3278.76 677.676 3278.76 469.522 3269.73 469.522ZM2990.05 466.739 3004.45 466.739 3004.45 469.522 2995.42 469.522 2995.42 677.676 3004.45 677.676 3004.45 680.459 2990.05 680.459Z" fill-rule="evenodd"/><path d="M3021.5 472.238 3022.84 472.238C3022.74 473.801 3022.69 475.966 3022.69 478.732L3022.69 499.582C3022.69 500.526 3022.75 501.238 3022.85 501.718 3022.96 502.198 3023.15 502.589 3023.41 502.89 3023.68 503.191 3024.07 503.427 3024.57 503.598 3025.08 503.769 3025.71 503.899 3026.48 503.989 3027.24 504.078 3028.25 504.139 3029.51 504.172L3029.51 505.954 3011.46 505.954 3011.46 504.172C3013.27 504.091 3014.56 503.981 3015.33 503.842 3016.11 503.704 3016.7 503.496 3017.1 503.22 3017.51 502.943 3017.81 502.552 3017.99 502.048 3018.18 501.543 3018.28 500.721 3018.28 499.582L3018.28 479.782C3018.28 479.131 3018.16 478.655 3017.93 478.354 3017.71 478.053 3017.37 477.902 3016.93 477.902 3016.41 477.902 3015.67 478.171 3014.71 478.708 3013.75 479.245 3012.56 479.986 3011.15 480.93L3010.07 479.05Z" fill-rule="evenodd"/><text fill="#000000" fill-opacity="0" font-family="Arial,Arial_MSFontService,sans-serif" font-size="33.7158" x="3010.07" y="501.74">1</text><path d="M3097.9 474.314C3096.78 474.314 3095.84 474.647 3095.08 475.314 3094.32 475.982 3093.71 476.942 3093.25 478.195 3092.78 479.449 3092.45 480.974 3092.26 482.773 3092.06 484.571 3091.97 486.602 3091.97 488.864 3091.97 494.17 3092.46 498.064 3093.44 500.546 3094.43 503.029 3095.95 504.27 3098.02 504.27 3099.99 504.27 3101.45 503.102 3102.4 500.766 3103.36 498.431 3103.83 494.813 3103.83 489.914 3103.83 486.171 3103.59 483.139 3103.1 480.82 3102.61 478.501 3101.93 476.836 3101.06 475.827 3100.19 474.818 3099.14 474.314 3097.9 474.314ZM3098.02 472.238C3101.59 472.238 3104.24 473.614 3105.98 476.364 3107.72 479.115 3108.59 483.273 3108.59 488.84 3108.59 494.602 3107.66 498.96 3105.8 501.914 3103.93 504.868 3101.21 506.345 3097.63 506.345 3094.11 506.345 3091.5 504.961 3089.78 502.194 3088.06 499.427 3087.21 495.228 3087.21 489.597 3087.21 486.602 3087.47 484.014 3088 481.833 3088.53 479.652 3089.27 477.849 3090.22 476.425 3091.17 475.001 3092.32 473.947 3093.65 473.264 3094.99 472.58 3096.44 472.238 3098.02 472.238Z" fill-rule="evenodd"/><text fill="#000000" fill-opacity="0" font-family="Arial,Arial_MSFontService,sans-serif" font-size="34.1064" x="3087.21" y="502.081">0</text><path d="M3019.57 533.416C3018.45 533.416 3017.51 533.749 3016.75 534.417 3015.99 535.084 3015.38 536.044 3014.92 537.297 3014.45 538.551 3014.13 540.077 3013.93 541.875 3013.73 543.674 3013.64 545.704 3013.64 547.966 3013.64 553.272 3014.13 557.166 3015.11 559.648 3016.1 562.131 3017.62 563.372 3019.69 563.372 3021.66 563.372 3023.12 562.204 3024.07 559.868 3025.03 557.533 3025.5 553.915 3025.5 549.016 3025.5 545.273 3025.26 542.241 3024.77 539.922 3024.28 537.603 3023.6 535.938 3022.73 534.929 3021.86 533.92 3020.81 533.416 3019.57 533.416ZM3019.69 531.34C3023.26 531.34 3025.91 532.716 3027.65 535.466 3029.39 538.217 3030.26 542.376 3030.26 547.942 3030.26 553.704 3029.33 558.062 3027.47 561.016 3025.6 563.97 3022.88 565.447 3019.3 565.447 3015.79 565.447 3013.17 564.063 3011.45 561.296 3009.73 558.53 3008.88 554.33 3008.88 548.699 3008.88 545.704 3009.14 543.116 3009.67 540.935 3010.2 538.754 3010.94 536.952 3011.89 535.527 3012.84 534.103 3013.99 533.049 3015.32 532.366 3016.66 531.682 3018.11 531.34 3019.69 531.34Z" fill-rule="evenodd"/><text fill="#000000" fill-opacity="0" font-family="Arial,Arial_MSFontService,sans-serif" font-size="34.1064" x="3008.88" y="561.184">0</text><path d="M3097.9 533.416C3096.78 533.416 3095.84 533.749 3095.08 534.417 3094.32 535.084 3093.71 536.044 3093.25 537.297 3092.78 538.551 3092.45 540.077 3092.26 541.875 3092.06 543.674 3091.97 545.704 3091.97 547.966 3091.97 553.272 3092.46 557.166 3093.44 559.648 3094.43 562.131 3095.95 563.372 3098.02 563.372 3099.99 563.372 3101.45 562.204 3102.4 559.868 3103.36 557.533 3103.83 553.915 3103.83 549.016 3103.83 545.273 3103.59 542.241 3103.1 539.922 3102.61 537.603 3101.93 535.938 3101.06 534.929 3100.19 533.92 3099.14 533.416 3097.9 533.416ZM3098.02 531.34C3101.59 531.34 3104.24 532.716 3105.98 535.466 3107.72 538.217 3108.59 542.376 3108.59 547.942 3108.59 553.704 3107.66 558.062 3105.8 561.016 3103.93 563.97 3101.21 565.447 3097.63 565.447 3094.11 565.447 3091.5 564.063 3089.78 561.296 3088.06 558.53 3087.21 554.33 3087.21 548.699 3087.21 545.704 3087.47 543.116 3088 540.935 3088.53 538.754 3089.27 536.952 3090.22 535.527 3091.17 534.103 3092.32 533.049 3093.65 532.366 3094.99 531.682 3096.44 531.34 3098.02 531.34Z" fill-rule="evenodd"/><text fill="#000000" fill-opacity="0" font-family="Arial,Arial_MSFontService,sans-serif" font-size="34.1064" x="3087.21" y="561.184">0</text><path d="M3176.23 474.314C3175.1 474.314 3174.17 474.647 3173.41 475.314 3172.65 475.982 3172.04 476.942 3171.58 478.195 3171.11 479.449 3170.78 480.974 3170.59 482.773 3170.39 484.571 3170.3 486.602 3170.3 488.864 3170.3 494.17 3170.79 498.064 3171.77 500.546 3172.76 503.029 3174.28 504.27 3176.35 504.27 3178.32 504.27 3179.78 503.102 3180.73 500.766 3181.68 498.431 3182.16 494.813 3182.16 489.914 3182.16 486.171 3181.92 483.139 3181.43 480.82 3180.94 478.501 3180.26 476.836 3179.39 475.827 3178.52 474.818 3177.47 474.314 3176.23 474.314ZM3176.35 472.238C3179.91 472.238 3182.57 473.614 3184.31 476.364 3186.05 479.115 3186.92 483.273 3186.92 488.84 3186.92 494.602 3185.99 498.96 3184.13 501.914 3182.26 504.868 3179.54 506.345 3175.96 506.345 3172.44 506.345 3169.83 504.961 3168.11 502.194 3166.39 499.427 3165.53 495.228 3165.53 489.597 3165.53 486.602 3165.8 484.014 3166.33 481.833 3166.86 479.652 3167.6 477.849 3168.55 476.425 3169.5 475.001 3170.65 473.947 3171.98 473.264 3173.31 472.58 3174.77 472.238 3176.35 472.238Z" fill-rule="evenodd"/><text fill="#000000" fill-opacity="0" font-family="Arial,Arial_MSFontService,sans-serif" font-size="34.1064" x="3165.53" y="502.081">0</text><path d="M3254.56 474.314C3253.43 474.314 3252.49 474.647 3251.74 475.314 3250.98 475.982 3250.37 476.942 3249.91 478.195 3249.44 479.449 3249.11 480.974 3248.92 482.773 3248.72 484.571 3248.62 486.602 3248.62 488.864 3248.62 494.17 3249.12 498.064 3250.1 500.546 3251.09 503.029 3252.61 504.27 3254.68 504.27 3256.65 504.27 3258.11 503.102 3259.06 500.766 3260.01 498.431 3260.49 494.813 3260.49 489.914 3260.49 486.171 3260.25 483.139 3259.76 480.82 3259.27 478.501 3258.59 476.836 3257.72 475.827 3256.85 474.818 3255.79 474.314 3254.56 474.314ZM3254.68 472.238C3258.24 472.238 3260.9 473.614 3262.64 476.364 3264.38 479.115 3265.25 483.273 3265.25 488.84 3265.25 494.602 3264.32 498.96 3262.46 501.914 3260.59 504.868 3257.87 506.345 3254.29 506.345 3250.77 506.345 3248.16 504.961 3246.44 502.194 3244.72 499.427 3243.86 495.228 3243.86 489.597 3243.86 486.602 3244.13 484.014 3244.66 481.833 3245.19 479.652 3245.93 477.849 3246.88 476.425 3247.83 475.001 3248.97 473.947 3250.31 473.264 3251.64 472.58 3253.1 472.238 3254.68 472.238Z" fill-rule="evenodd"/><text fill="#000000" fill-opacity="0" font-family="Arial,Arial_MSFontService,sans-serif" font-size="34.1064" x="3243.86" y="502.081">0</text><path d="M3178.16 531.34 3179.5 531.34C3179.4 532.903 3179.35 535.068 3179.35 537.835L3179.35 558.684C3179.35 559.628 3179.41 560.34 3179.51 560.82 3179.62 561.301 3179.8 561.691 3180.07 561.992 3180.34 562.293 3180.73 562.529 3181.23 562.7 3181.74 562.871 3182.37 563.001 3183.14 563.091 3183.9 563.18 3184.91 563.241 3186.16 563.274L3186.16 565.056 3168.12 565.056 3168.12 563.274C3169.93 563.193 3171.22 563.083 3171.99 562.944 3172.77 562.806 3173.36 562.599 3173.76 562.322 3174.17 562.045 3174.47 561.655 3174.65 561.15 3174.84 560.645 3174.93 559.823 3174.93 558.684L3174.93 538.884C3174.93 538.233 3174.82 537.757 3174.59 537.456 3174.36 537.155 3174.03 537.004 3173.59 537.004 3173.07 537.004 3172.33 537.273 3171.37 537.81 3170.41 538.347 3169.22 539.088 3167.81 540.032L3166.73 538.152Z" fill-rule="evenodd"/><text fill="#000000" fill-opacity="0" font-family="Arial,Arial_MSFontService,sans-serif" font-size="33.7158" x="3166.73" y="560.842">1</text><path d="M3254.56 533.416C3253.43 533.416 3252.49 533.749 3251.74 534.417 3250.98 535.084 3250.37 536.044 3249.91 537.297 3249.44 538.551 3249.11 540.077 3248.92 541.875 3248.72 543.674 3248.62 545.704 3248.62 547.966 3248.62 553.272 3249.12 557.166 3250.1 559.648 3251.09 562.131 3252.61 563.372 3254.68 563.372 3256.65 563.372 3258.11 562.204 3259.06 559.868 3260.01 557.533 3260.49 553.915 3260.49 549.016 3260.49 545.273 3260.25 542.241 3259.76 539.922 3259.27 537.603 3258.59 535.938 3257.72 534.929 3256.85 533.92 3255.79 533.416 3254.56 533.416ZM3254.68 531.34C3258.24 531.34 3260.9 532.716 3262.64 535.466 3264.38 538.217 3265.25 542.376 3265.25 547.942 3265.25 553.704 3264.32 558.062 3262.46 561.016 3260.59 563.97 3257.87 565.447 3254.29 565.447 3250.77 565.447 3248.16 564.063 3246.44 561.296 3244.72 558.53 3243.86 554.33 3243.86 548.699 3243.86 545.704 3244.13 543.116 3244.66 540.935 3245.19 538.754 3245.93 536.952 3246.88 535.527 3247.83 534.103 3248.97 533.049 3250.31 532.366 3251.64 531.682 3253.1 531.34 3254.68 531.34Z" fill-rule="evenodd"/><text fill="#000000" fill-opacity="0" font-family="Arial,Arial_MSFontService,sans-serif" font-size="34.1064" x="3243.86" y="561.184">0</text><path d="M3019.57 583.878C3018.45 583.878 3017.51 584.212 3016.75 584.879 3015.99 585.546 3015.38 586.507 3014.92 587.76 3014.45 589.013 3014.13 590.539 3013.93 592.338 3013.73 594.136 3013.64 596.167 3013.64 598.429 3013.64 603.735 3014.13 607.629 3015.11 610.111 3016.1 612.593 3017.62 613.834 3019.69 613.834 3021.66 613.834 3023.12 612.666 3024.07 610.331 3025.03 607.995 3025.5 604.378 3025.5 599.479 3025.5 595.735 3025.26 592.704 3024.77 590.384 3024.28 588.065 3023.6 586.401 3022.73 585.392 3021.86 584.383 3020.81 583.878 3019.57 583.878ZM3019.69 581.803C3023.26 581.803 3025.91 583.178 3027.65 585.929 3029.39 588.68 3030.26 592.838 3030.26 598.404 3030.26 604.166 3029.33 608.524 3027.47 611.478 3025.6 614.432 3022.88 615.909 3019.3 615.909 3015.79 615.909 3013.17 614.526 3011.45 611.759 3009.73 608.992 3008.88 604.793 3008.88 599.161 3008.88 596.167 3009.14 593.579 3009.67 591.398 3010.2 589.217 3010.94 587.414 3011.89 585.99 3012.84 584.566 3013.99 583.512 3015.32 582.828 3016.66 582.145 3018.11 581.803 3019.69 581.803Z" fill-rule="evenodd"/><text fill="#000000" fill-opacity="0" font-family="Arial,Arial_MSFontService,sans-serif" font-size="34.1064" x="3008.88" y="611.646">0</text><path d="M3099.83 581.803 3101.17 581.803C3101.07 583.365 3101.02 585.53 3101.02 588.297L3101.02 609.147C3101.02 610.091 3101.08 610.803 3101.18 611.283 3101.29 611.763 3101.48 612.154 3101.74 612.455 3102.01 612.756 3102.4 612.992 3102.9 613.163 3103.41 613.334 3104.04 613.464 3104.81 613.553 3105.57 613.643 3106.58 613.704 3107.84 613.737L3107.84 615.519 3089.79 615.519 3089.79 613.737C3091.6 613.655 3092.89 613.545 3093.66 613.407 3094.44 613.269 3095.03 613.061 3095.43 612.784 3095.84 612.508 3096.14 612.117 3096.32 611.612 3096.51 611.108 3096.6 610.286 3096.6 609.147L3096.6 589.347C3096.6 588.696 3096.49 588.22 3096.26 587.919 3096.04 587.618 3095.7 587.467 3095.26 587.467 3094.74 587.467 3094 587.736 3093.04 588.273 3092.08 588.81 3090.89 589.55 3089.48 590.494L3088.4 588.614Z" fill-rule="evenodd"/><text fill="#000000" fill-opacity="0" font-family="Arial,Arial_MSFontService,sans-serif" font-size="33.7158" x="3088.4" y="611.304">1</text><path d="M3019.57 642.98C3018.45 642.98 3017.51 643.314 3016.75 643.981 3015.99 644.648 3015.38 645.609 3014.92 646.862 3014.45 648.115 3014.13 649.641 3013.93 651.44 3013.73 653.238 3013.64 655.269 3013.64 657.531 3013.64 662.837 3014.13 666.731 3015.11 669.213 3016.1 671.695 3017.62 672.936 3019.69 672.936 3021.66 672.936 3023.12 671.768 3024.07 669.433 3025.03 667.097 3025.5 663.48 3025.5 658.581 3025.5 654.837 3025.26 651.806 3024.77 649.487 3024.28 647.167 3023.6 645.503 3022.73 644.494 3021.86 643.485 3020.81 642.98 3019.57 642.98ZM3019.69 640.905C3023.26 640.905 3025.91 642.28 3027.65 645.031 3029.39 647.782 3030.26 651.94 3030.26 657.507 3030.26 663.268 3029.33 667.626 3027.47 670.58 3025.6 673.534 3022.88 675.011 3019.3 675.011 3015.79 675.011 3013.17 673.628 3011.45 670.861 3009.73 668.094 3008.88 663.895 3008.88 658.263 3008.88 655.269 3009.14 652.681 3009.67 650.5 3010.2 648.319 3010.94 646.516 3011.89 645.092 3012.84 643.668 3013.99 642.614 3015.32 641.93 3016.66 641.247 3018.11 640.905 3019.69 640.905Z" fill-rule="evenodd"/><text fill="#000000" fill-opacity="0" font-family="Arial,Arial_MSFontService,sans-serif" font-size="34.1064" x="3008.88" y="670.748">0</text><path d="M3097.9 642.98C3096.78 642.98 3095.84 643.314 3095.08 643.981 3094.32 644.648 3093.71 645.609 3093.25 646.862 3092.78 648.115 3092.45 649.641 3092.26 651.44 3092.06 653.238 3091.97 655.269 3091.97 657.531 3091.97 662.837 3092.46 666.731 3093.44 669.213 3094.43 671.695 3095.95 672.936 3098.02 672.936 3099.99 672.936 3101.45 671.768 3102.4 669.433 3103.36 667.097 3103.83 663.48 3103.83 658.581 3103.83 654.837 3103.59 651.806 3103.1 649.487 3102.61 647.167 3101.93 645.503 3101.06 644.494 3100.19 643.485 3099.14 642.98 3097.9 642.98ZM3098.02 640.905C3101.59 640.905 3104.24 642.28 3105.98 645.031 3107.72 647.782 3108.59 651.94 3108.59 657.507 3108.59 663.268 3107.66 667.626 3105.8 670.58 3103.93 673.534 3101.21 675.011 3097.63 675.011 3094.11 675.011 3091.5 673.628 3089.78 670.861 3088.06 668.094 3087.21 663.895 3087.21 658.263 3087.21 655.269 3087.47 652.681 3088 650.5 3088.53 648.319 3089.27 646.516 3090.22 645.092 3091.17 643.668 3092.32 642.614 3093.65 641.93 3094.99 641.247 3096.44 640.905 3098.02 640.905Z" fill-rule="evenodd"/><text fill="#000000" fill-opacity="0" font-family="Arial,Arial_MSFontService,sans-serif" font-size="34.1064" x="3087.21" y="670.748">0</text><path d="M3176.23 583.878C3175.1 583.878 3174.17 584.212 3173.41 584.879 3172.65 585.546 3172.04 586.507 3171.58 587.76 3171.11 589.013 3170.78 590.539 3170.59 592.338 3170.39 594.136 3170.3 596.167 3170.3 598.429 3170.3 603.735 3170.79 607.629 3171.77 610.111 3172.76 612.593 3174.28 613.834 3176.35 613.834 3178.32 613.834 3179.78 612.666 3180.73 610.331 3181.68 607.995 3182.16 604.378 3182.16 599.479 3182.16 595.735 3181.92 592.704 3181.43 590.384 3180.94 588.065 3180.26 586.401 3179.39 585.392 3178.52 584.383 3177.47 583.878 3176.23 583.878ZM3176.35 581.803C3179.91 581.803 3182.57 583.178 3184.31 585.929 3186.05 588.68 3186.92 592.838 3186.92 598.404 3186.92 604.166 3185.99 608.524 3184.13 611.478 3182.26 614.432 3179.54 615.909 3175.96 615.909 3172.44 615.909 3169.83 614.526 3168.11 611.759 3166.39 608.992 3165.53 604.793 3165.53 599.161 3165.53 596.167 3165.8 593.579 3166.33 591.398 3166.86 589.217 3167.6 587.414 3168.55 585.99 3169.5 584.566 3170.65 583.512 3171.98 582.828 3173.31 582.145 3174.77 581.803 3176.35 581.803Z" fill-rule="evenodd"/><text fill="#000000" fill-opacity="0" font-family="Arial,Arial_MSFontService,sans-serif" font-size="34.1064" x="3165.53" y="611.646">0</text><path d="M3254.56 583.878C3253.43 583.878 3252.49 584.212 3251.74 584.879 3250.98 585.546 3250.37 586.507 3249.91 587.76 3249.44 589.013 3249.11 590.539 3248.92 592.338 3248.72 594.136 3248.62 596.167 3248.62 598.429 3248.62 603.735 3249.12 607.629 3250.1 610.111 3251.09 612.593 3252.61 613.834 3254.68 613.834 3256.65 613.834 3258.11 612.666 3259.06 610.331 3260.01 607.995 3260.49 604.378 3260.49 599.479 3260.49 595.735 3260.25 592.704 3259.76 590.384 3259.27 588.065 3258.59 586.401 3257.72 585.392 3256.85 584.383 3255.79 583.878 3254.56 583.878ZM3254.68 581.803C3258.24 581.803 3260.9 583.178 3262.64 585.929 3264.38 588.68 3265.25 592.838 3265.25 598.404 3265.25 604.166 3264.32 608.524 3262.46 611.478 3260.59 614.432 3257.87 615.909 3254.29 615.909 3250.77 615.909 3248.16 614.526 3246.44 611.759 3244.72 608.992 3243.86 604.793 3243.86 599.161 3243.86 596.167 3244.13 593.579 3244.66 591.398 3245.19 589.217 3245.93 587.414 3246.88 585.99 3247.83 584.566 3248.97 583.512 3250.31 582.828 3251.64 582.145 3253.1 581.803 3254.68 581.803Z" fill-rule="evenodd"/><text fill="#000000" fill-opacity="0" font-family="Arial,Arial_MSFontService,sans-serif" font-size="34.1064" x="3243.86" y="611.646">0</text><path d="M3176.23 642.98C3175.1 642.98 3174.17 643.314 3173.41 643.981 3172.65 644.648 3172.04 645.609 3171.58 646.862 3171.11 648.115 3170.78 649.641 3170.59 651.44 3170.39 653.238 3170.3 655.269 3170.3 657.531 3170.3 662.837 3170.79 666.731 3171.77 669.213 3172.76 671.695 3174.28 672.936 3176.35 672.936 3178.32 672.936 3179.78 671.768 3180.73 669.433 3181.68 667.097 3182.16 663.48 3182.16 658.581 3182.16 654.837 3181.92 651.806 3181.43 649.487 3180.94 647.167 3180.26 645.503 3179.39 644.494 3178.52 643.485 3177.47 642.98 3176.23 642.98ZM3176.35 640.905C3179.91 640.905 3182.57 642.28 3184.31 645.031 3186.05 647.782 3186.92 651.94 3186.92 657.507 3186.92 663.268 3185.99 667.626 3184.13 670.58 3182.26 673.534 3179.54 675.011 3175.96 675.011 3172.44 675.011 3169.83 673.628 3168.11 670.861 3166.39 668.094 3165.53 663.895 3165.53 658.263 3165.53 655.269 3165.8 652.681 3166.33 650.5 3166.86 648.319 3167.6 646.516 3168.55 645.092 3169.5 643.668 3170.65 642.614 3171.98 641.93 3173.31 641.247 3174.77 640.905 3176.35 640.905Z" fill-rule="evenodd"/><text fill="#000000" fill-opacity="0" font-family="Arial,Arial_MSFontService,sans-serif" font-size="34.1064" x="3165.53" y="670.748">0</text><path d="M3256.49 640.905 3257.83 640.905C3257.73 642.467 3257.68 644.632 3257.68 647.399L3257.68 668.249C3257.68 669.193 3257.74 669.905 3257.84 670.385 3257.95 670.865 3258.13 671.256 3258.4 671.557 3258.67 671.858 3259.06 672.094 3259.56 672.265 3260.07 672.436 3260.7 672.566 3261.47 672.655 3262.23 672.745 3263.24 672.806 3264.49 672.839L3264.49 674.621 3246.45 674.621 3246.45 672.839C3248.26 672.757 3249.55 672.647 3250.32 672.509 3251.09 672.371 3251.68 672.163 3252.09 671.886 3252.5 671.61 3252.8 671.219 3252.98 670.715 3253.17 670.21 3253.26 669.388 3253.26 668.249L3253.26 648.449C3253.26 647.798 3253.15 647.322 3252.92 647.021 3252.69 646.72 3252.36 646.569 3251.92 646.569 3251.4 646.569 3250.66 646.838 3249.7 647.375 3248.74 647.912 3247.55 648.652 3246.13 649.596L3245.06 647.716Z" fill-rule="evenodd"/><text fill="#000000" fill-opacity="0" font-family="Arial,Arial_MSFontService,sans-serif" font-size="33.7158" x="3245.06" y="670.406">1</text></g></svg>